<svg xmlns="http://www.w3.org/2000/svg" viewBox="0 0 24 24" fill="none">
  <path d="M20.5 3H16C15.4477 3 15 3.44772 15 4V8.5C15 9.05228 15.4477 9.5 16 9.5H20.5C21.0523 9.5 21.5 9.05228 21.5 8.5V4C21.5 3.44772 21.0523 3 20.5 3Z" fill="#5059C9"/>
  <path d="M12 6H8C7.44772 6 7 6.44772 7 7V17C7 17.5523 7.44772 18 8 18H12C12.5523 18 13 17.5523 13 17V7C13 6.44772 12.5523 6 12 6Z" fill="#7B83EB"/>
  <path d="M4 9H2.5C1.94772 9 1.5 9.44772 1.5 10V14C1.5 14.5523 1.94772 15 2.5 15H4C4.55228 15 5 14.5523 5 14V10C5 9.44772 4.55228 9 4 9Z" fill="#7B83EB"/>
</svg> 